<?xml version="1.0" standalone="no" ?>
<!DOCTYPE svg PUBLIC "-//W3C//DTD SVG 20010904//EN"
"http://www.w3.org/TR/2001/REC-SVG-20010904/DTD/svg10.dtd">
<svg width="800" height="200" xmlns="http://www.w3.org/2000/svg"
     xmlns:xlink="http://www.w3.org/1999/xlink">
  <svg x="10" y="10" width="180" height="180"
       viewBox="0 0 100 100">
    <polygon fill="white" stroke="black"
             points="10 90,50 50,90 90" />
    <polygon fill="white" stroke="black"
             points="90 90,50 50,90 10" />
    <polygon fill="white" stroke="black"
             points="10 10, 90 10, 50 50" />
    <polygon fill="white" stroke="black"
             points="10 10, 50 50, 10 90" />
    <rect x="10" y="10" width="80" height="80"
          fill="none" stroke="black" stroke-width="2px"/>
  </svg>
  <svg x="210" y="10" width="180" height="180"
       viewBox="0 0 100 100">
    <polygon fill="gray" stroke="black"
             points="10 90, 50 90, 10 50" />
    <polygon fill="white" stroke="black"
             points="50 90, 10 50, 90 10" />
    <polygon fill="white" stroke="black"
             points="50 90, 90 90, 90 10" />
    <polygon fill="white" stroke="black"
             points="10 50, 90 10, 10 10" />
    <rect x="10" y="10" width="80" height="80"
          fill="none" stroke="black" stroke-width="2px"/>
    <circle cx="10" cy="90" r="4" fill="red" />
  </svg>
  <svg x="410" y="10" width="180" height="180"
       viewBox="0 0 100 100">
    <polygon fill="gray" stroke="black"
             points="10 90, 50 50, 10 50" />
    <polygon fill="gray" stroke="black"
             points="10 90, 50 50, 90 90" />
    <polygon fill="gray" stroke="black"
             points="90 90, 50 50, 90 50" />
    <polygon fill="white" stroke="black"
             points="10 50, 50 50, 10 10" />
    <polygon fill="white" stroke="black"
             points="10 10, 50 50, 90 10" />
    <polygon fill="white" stroke="black"
             points="90 10, 50 50, 90 50" />
    <rect x="10" y="10" width="80" height="80"
          fill="none" stroke="black" stroke-width="2px"/>
    <circle cx="10" cy="90" r="4" fill="red" />
    <circle cx="90" cy="90" r="4" fill="red" />
  </svg>
  <svg x="610" y="10" width="180" height="180"
       viewBox="0 0 100 100">
    <polygon fill="gray" stroke="black"
             points="10 90, 50 90, 10 50" />
    <polygon fill="gray" stroke="black"
             points="90 50, 50 10, 90 10" />
    <polygon fill="white" stroke="black"
             points="50 90, 10 50, 50 50" />
    <polygon fill="white" stroke="black"
             points="50 90, 50 50, 90 50" />
    <polygon fill="white" stroke="black"
             points="50 90, 90 90, 90 50" />
    <polygon fill="white" stroke="black"
             points="10 50, 10 10, 50 10" />
    <polygon fill="white" stroke="black"
             points="10 50, 50 50, 50 10" />
    <polygon fill="white" stroke="black"
             points="50 50, 50 10, 90 50" />
    <rect x="10" y="10" width="80" height="80"
          fill="none" stroke="black" stroke-width="2px"/>
    <circle cx="10" cy="90" r="4" fill="red" />
    <circle cx="90" cy="10" r="4" fill="red" />
  </svg>
</svg>